<?xml version="1.0"?>
<svg width="420" height="500" xmlns="http://www.w3.org/2000/svg">
<defs><linearGradient id="bg" x1="0" y1="0" x2="1" y2="1"><stop offset="0" stop-color="#1a1a2e"/><stop offset="1" stop-color="#16213e"/></linearGradient></defs>
<rect width="420" height="500" fill="url(#bg)"/>
<text x="210" y="36" text-anchor="middle" fill="#e94560" font-size="20" font-weight="bold">Boot Sequence</text>
<rect x="110" y="60" width="200" height="42" rx="10" fill="#4ecca3"/>
<text x="210" y="87" text-anchor="middle" fill="#1a1a2e" font-size="13" font-weight="bold">BIOS/UEFI POST</text>
<line x1="210" y1="102" x2="210" y2="111" stroke="#e94560" stroke-width="2"/>
<rect x="110" y="111" width="200" height="42" rx="10" fill="#f9ca24"/>
<text x="210" y="138" text-anchor="middle" fill="#1a1a2e" font-size="13" font-weight="bold">GRUB Loader</text>
<line x1="210" y1="153" x2="210" y2="162" stroke="#e94560" stroke-width="2"/>
<rect x="110" y="162" width="200" height="42" rx="10" fill="#ffb347"/>
<text x="210" y="189" text-anchor="middle" fill="#1a1a2e" font-size="13" font-weight="bold">Kernel Load</text>
<line x1="210" y1="204" x2="210" y2="213" stroke="#e94560" stroke-width="2"/>
<rect x="110" y="213" width="200" height="42" rx="10" fill="#e07be0"/>
<text x="210" y="240" text-anchor="middle" fill="#1a1a2e" font-size="13" font-weight="bold">systemd Init</text>
<line x1="210" y1="255" x2="210" y2="264" stroke="#e94560" stroke-width="2"/>
<rect x="110" y="264" width="200" height="42" rx="10" fill="#fd5656"/>
<text x="210" y="291" text-anchor="middle" fill="#1a1a2e" font-size="13" font-weight="bold">SDDM</text>
<line x1="210" y1="306" x2="210" y2="315" stroke="#e94560" stroke-width="2"/>
<rect x="110" y="315" width="200" height="42" rx="10" fill="#e94560"/>
<text x="210" y="342" text-anchor="middle" fill="#1a1a2e" font-size="13" font-weight="bold">Hyprland</text>
<line x1="210" y1="357" x2="210" y2="366" stroke="#e94560" stroke-width="2"/>
<rect x="110" y="366" width="200" height="42" rx="10" fill="#4ecca3"/>
<text x="210" y="393" text-anchor="middle" fill="#1a1a2e" font-size="13" font-weight="bold">Caelestia Shell</text>
<line x1="210" y1="408" x2="210" y2="417" stroke="#e94560" stroke-width="2"/>
</svg>
