<svg width="640" height="400" xmlns="http://www.w3.org/2000/svg">
<defs><linearGradient id="bg" x1="0" y1="0" x2="1" y2="1"><stop offset="0" stop-color="#0f3460"/><stop offset="1" stop-color="#16213e"/></linearGradient></defs>
<rect width="640" height="400" fill="url(#bg)"/>
<text x="320" y="36" text-anchor="middle" fill="#e94560" font-size="22" font-weight="bold">Memory Management</text>
<rect x="30" y="55" width="280" height="185" rx="12" fill="#0f3460" stroke="#ffb347" stroke-width="2"/>
<text x="170" y="82" text-anchor="middle" fill="#ffb347" font-size="14" font-weight="bold">Physical RAM</text>
<rect x="40" y="92" width="260" height="30" fill="#4ecca3"/>
<text x="170" y="112" text-anchor="middle" fill="#1a1a2e" font-size="11">Used 8.2 GB</text>
<rect x="40" y="127" width="260" height="24" fill="#f9ca24"/>
<text x="170" y="144" text-anchor="middle" fill="#1a1a2e" font-size="11">Cache 2.1 GB</text>
<rect x="40" y="156" width="260" height="70" fill="#ff7979"/>
<text x="170" y="195" text-anchor="middle" fill="#fff" font-size="11">Free 4.7 GB</text>
<rect x="340" y="55" width="280" height="120" rx="12" fill="#0f3460" stroke="#fd5656" stroke-width="2"/>
<text x="480" y="82" text-anchor="middle" fill="#fd5656" font-size="14" font-weight="bold">ZRAM Swap</text>
<rect x="350" y="92" width="260" height="24" fill="#fd5656"/>
<text x="480" y="109" text-anchor="middle" fill="#fff" font-size="11">Compressed 3.8 GB</text>
<rect x="350" y="121" width="260" height="40" fill="#c0392b"/>
<text x="480" y="146" text-anchor="middle" fill="#fff" font-size="11">Available 12.2 GB</text>
<rect x="340" y="190" width="280" height="190" rx="12" fill="#0f3460" stroke="#4ecca3" stroke-width="2"/>
<text x="480" y="217" text-anchor="middle" fill="#4ecca3" font-size="14" font-weight="bold">Processes</text>
<text x="360" y="246" fill="#ccc" font-size="12">Chrome  2.8 GB</text>
<text x="360" y="268" fill="#ccc" font-size="12">VSCodium 1.2 GB</text>
<text x="360" y="290" fill="#ccc" font-size="12">Neovim  0.3 GB</text>
<text x="360" y="312" fill="#ccc" font-size="12">System  1.8 GB</text>
<text x="360" y="334" fill="#ccc" font-size="12">Other   2.1 GB</text>
<text x="360" y="362" fill="#ffb347" font-size="12">Total 15 GB</text>
</svg>