<svg width="640" height="340" xmlns="http://www.w3.org/2000/svg">
<defs><linearGradient id="bg" x1="0" y1="0" x2="1" y2="1"><stop offset="0" stop-color="#4a1e1e"/><stop offset="1" stop-color="#1a1a2e"/></linearGradient></defs>
<rect width="640" height="340" fill="url(#bg)"/>
<text x="320" y="38" text-anchor="middle" fill="#ff7979" font-size="22" font-weight="bold">Network Attack Surface</text>
<rect x="30" y="70" width="180" height="70" rx="12" fill="#e94560"/>
<text x="120" y="100" text-anchor="middle" fill="#1a1a2e" font-size="14" font-weight="bold">External</text>
<text x="120" y="122" text-anchor="middle" fill="#1a1a2e" font-size="11">Internet</text>
<line x1="210" y1="105" x2="225" y2="105" stroke="#fff" stroke-width="2"/>
<rect x="240" y="70" width="180" height="70" rx="12" fill="#f9ca24"/>
<text x="330" y="100" text-anchor="middle" fill="#1a1a2e" font-size="14" font-weight="bold">DMZ</text>
<text x="330" y="122" text-anchor="middle" fill="#1a1a2e" font-size="11">Web/Pub</text>
<line x1="420" y1="105" x2="435" y2="105" stroke="#fff" stroke-width="2"/>
<rect x="450" y="70" width="180" height="70" rx="12" fill="#4ecca3"/>
<text x="540" y="100" text-anchor="middle" fill="#1a1a2e" font-size="14" font-weight="bold">Internal</text>
<text x="540" y="122" text-anchor="middle" fill="#1a1a2e" font-size="11">App/DB</text>
<rect x="30" y="170" width="580" height="150" rx="12" fill="#0f3460" stroke="#ff7979" stroke-width="2"/>
<text x="320" y="200" text-anchor="middle" fill="#fff" font-size="14" font-weight="bold">Attack Vectors</text>
<text x="50" y="230" fill="#ccc" font-size="12">Web: XSS · SQLi · SSRF</text>
<text x="50" y="255" fill="#ccc" font-size="12">Network: port scan · service enum</text>
<text x="50" y="280" fill="#ccc" font-size="12">Social: phishing · pretexting</text>
<text x="50" y="305" fill="#ccc" font-size="12">Physical: tailgating · USB drops</text>
</svg>